<svg width="83" height="83" viewBox="0 0 83 83" fill="none" xmlns="http://www.w3.org/2000/svg">
<path fill-rule="evenodd" clip-rule="evenodd" d="M61.1161 17.9914L66.1947 12.9128C67.2027 11.9077 67.8898 10.6261 68.169 9.23035C68.4482 7.83456 68.3069 6.38731 67.7631 5.07183C67.2194 3.75635 66.2975 2.6318 65.1142 1.84056C63.9309 1.04931 62.5395 0.626953 61.1161 0.626953C59.6926 0.626953 58.3012 1.04931 57.1179 1.84056C55.9347 2.6318 55.0128 3.75635 54.469 5.07183C53.9252 6.38731 53.784 7.83456 54.0632 9.23035C54.3424 10.6261 55.0294 11.9077 56.0374 12.9128L61.1161 17.9914ZM59.4146 6.13265C59.6357 5.90335 59.9002 5.7204 60.1928 5.5945C60.4854 5.46859 60.8002 5.40225 61.1187 5.39934C61.4372 5.39644 61.7531 5.45703 62.0479 5.57758C62.3428 5.69814 62.6106 5.87623 62.8358 6.10146C63.0611 6.3267 63.2392 6.59455 63.3597 6.88939C63.4803 7.18422 63.5409 7.50012 63.538 7.81863C63.5351 8.13715 63.4687 8.45189 63.3428 8.74448C63.2169 9.03707 63.034 9.30163 62.8047 9.52272L61.1161 11.2113L59.4146 9.52272C58.9683 9.07146 58.7179 8.46238 58.7179 7.82769C58.7179 7.19299 58.9683 6.58391 59.4146 6.13265ZM80.567 17.1149C79.2149 15.7728 77.3871 15.0197 75.4819 15.0197C73.5768 15.0197 71.749 15.7728 70.3969 17.1149L65.3827 22.1936L70.4613 27.3496C71.8182 28.6579 73.6344 29.3812 75.5192 29.364C77.4041 29.3469 79.2068 28.5905 80.5396 27.2577C81.8724 25.9249 82.6288 24.1221 82.646 22.2373C82.6632 20.3525 81.9398 18.5363 80.6315 17.1794L80.567 17.1149ZM77.177 23.8435C76.7257 24.2898 76.1166 24.5401 75.4819 24.5401C74.8473 24.5401 74.2382 24.2898 73.7869 23.8435L72.0983 22.142L73.7869 20.4534C74.2392 20.0173 74.8446 19.7762 75.4729 19.7819C76.1012 19.7877 76.7021 20.0398 77.1464 20.484C77.5906 20.9283 77.8428 21.5292 77.8485 22.1575C77.8542 22.7858 77.6131 23.3912 77.177 23.8435ZM1.57532 42.2924C2.86692 35.7919 6.05692 29.8202 10.742 25.1325C13.8543 22.0184 17.5497 19.5481 21.6171 17.8627C25.6844 16.1772 30.044 15.3097 34.4467 15.3097C38.8494 15.3097 43.209 16.1772 47.2763 17.8627C51.3437 19.5481 55.0391 22.0184 58.1514 25.1325C62.8365 29.8202 66.0265 35.7919 67.3181 42.2924C68.6097 48.793 67.9449 55.5306 65.4077 61.6533C62.8706 67.7761 58.575 73.0091 53.0641 76.6908C47.5531 80.3726 41.0743 82.3376 34.4467 82.3376C27.8191 82.3376 21.3403 80.3726 15.8293 76.6908C10.3184 73.0091 6.02283 67.7761 3.48567 61.6533C0.948523 55.5306 0.283723 48.793 1.57532 42.2924ZM6.246 43.5212C5.16205 49.1794 5.80334 55.0328 8.08669 60.3221C11.3092 53.658 17.071 45.9369 24.2894 38.7572C31.5078 31.5775 39.2418 25.777 45.9059 22.5545C40.6197 20.2639 34.7672 19.6146 29.1075 20.6909C23.4478 21.7671 18.2421 24.5192 14.1656 28.5901C10.0891 32.6611 7.32995 37.863 6.246 43.5212ZM11.0514 65.5683C11.9801 66.8522 13.0057 68.0631 14.1192 69.1904C15.23 70.3019 16.4236 71.3275 17.6897 72.2582C24.3667 69.8865 33.2995 63.6606 41.2784 55.6431C49.2573 47.6255 55.5218 38.783 57.8936 32.1575C56.0484 29.5734 53.7878 27.3128 51.2037 25.4676C44.5267 27.8394 35.6712 34.0652 27.6795 42.0828C19.6877 50.1004 13.4231 58.9429 11.0514 65.5683ZM39.8142 77.0886C45.4791 76.0131 50.6908 73.2616 54.7742 69.1904C58.8453 65.107 61.5968 59.8954 62.6724 54.2304C63.7479 48.5654 63.098 42.708 60.8067 37.4166C57.6487 44.0679 51.8095 51.8405 44.604 59.0202C37.3985 66.2 29.6516 72.0133 23.0004 75.2229C28.2918 77.5142 34.1492 78.1641 39.8142 77.0886Z" fill="url(#paint0_linear_39_30)"/>
<defs>
<linearGradient id="paint0_linear_39_30" x1="-12.8601" y1="82.3769" x2="82.6681" y2="82.3769" gradientUnits="userSpaceOnUse">
<stop stop-color="#C69E6D"/>
<stop offset="1" stop-color="#F9D7AA"/>
</linearGradient>
</defs>
</svg>
