<svg width="82" height="83" viewBox="0 0 82 83" fill="none" xmlns="http://www.w3.org/2000/svg">
<path fill-rule="evenodd" clip-rule="evenodd" d="M7.24476 0.900269C5.55019 0.90032 3.91021 1.49956 2.6148 2.59203C1.31939 3.68451 0.451996 5.19984 0.165981 6.8701C-0.120034 8.54037 0.193756 10.258 1.05187 11.7192C1.90998 13.1805 3.25714 14.2912 4.85515 14.8551V80.2328C4.85515 80.8665 5.10691 81.4743 5.55505 81.9225C6.00319 82.3706 6.611 82.6224 7.24476 82.6224C7.87853 82.6224 8.48634 82.3706 8.93448 81.9225C9.38262 81.4743 9.63438 80.8665 9.63438 80.2328V14.8551C11.2324 14.2912 12.5795 13.1805 13.4377 11.7192C14.2958 10.258 14.6096 8.54037 14.3235 6.8701C14.0375 5.19984 13.1701 3.68451 11.8747 2.59203C10.5793 1.49956 8.93934 0.90032 7.24476 0.900269ZM7.24476 10.4719C6.77214 10.4719 6.31014 10.3318 5.91717 10.0692C5.5242 9.80663 5.21791 9.43342 5.03705 8.99677C4.85619 8.56013 4.80886 8.07966 4.90107 7.61612C4.99327 7.15258 5.22086 6.72679 5.55505 6.3926C5.88925 6.0584 6.31503 5.83082 6.77857 5.73861C7.24211 5.64641 7.72258 5.69373 8.15923 5.87459C8.59587 6.05546 8.96908 6.36174 9.23165 6.75471C9.49423 7.14768 9.63438 7.60969 9.63438 8.08231C9.63438 8.71607 9.38262 9.32388 8.93448 9.77202C8.48634 10.2202 7.87853 10.4719 7.24476 10.4719ZM74.603 0.900269C72.9084 0.90032 71.2685 1.49956 69.9731 2.59203C68.6776 3.68451 67.8102 5.19984 67.5242 6.8701C67.2382 8.54037 67.552 10.258 68.4101 11.7192C69.2682 13.1805 70.6154 14.2912 72.2134 14.8551V80.2328C72.2134 80.5466 72.2752 80.8573 72.3953 81.1472C72.5154 81.4372 72.6914 81.7006 72.9133 81.9225C73.1352 82.1444 73.3986 82.3204 73.6885 82.4405C73.9785 82.5606 74.2892 82.6224 74.603 82.6224C74.9168 82.6224 75.2276 82.5606 75.5175 82.4405C75.8074 82.3204 76.0708 82.1444 76.2927 81.9225C76.5146 81.7006 76.6906 81.4372 76.8107 81.1472C76.9308 80.8573 76.9926 80.5466 76.9926 80.2328V14.8551C78.5906 14.2912 79.9378 13.1805 80.7959 11.7192C81.654 10.258 81.9678 8.54037 81.6818 6.8701C81.3958 5.19984 80.5284 3.68451 79.233 2.59203C77.9376 1.49956 76.2976 0.90032 74.603 0.900269ZM74.603 10.4719C74.1304 10.4719 73.6684 10.3318 73.2754 10.0692C72.8824 9.80663 72.5762 9.43342 72.3953 8.99677C72.2144 8.56013 72.1671 8.07966 72.2593 7.61612C72.3515 7.15258 72.5791 6.72679 72.9133 6.3926C73.2475 6.0584 73.6733 5.83082 74.1368 5.73861C74.6004 5.64641 75.0808 5.69373 75.5175 5.87459C75.9541 6.05546 76.3273 6.36174 76.5899 6.75471C76.8525 7.14768 76.9926 7.60969 76.9926 8.08231C76.9926 8.39612 76.9308 8.70685 76.8107 8.99677C76.6906 9.2867 76.5146 9.55012 76.2927 9.77202C76.0708 9.99392 75.8074 10.1699 75.5175 10.29C75.2276 10.4101 74.9168 10.4719 74.603 10.4719ZM64.0676 55.8746C64.0669 57.0886 63.7724 58.2844 63.2094 59.36C64.4665 59.9826 65.5245 60.9443 66.264 62.1364C67.0035 63.3284 67.3951 64.7035 67.3946 66.1063V75.1103C67.3981 77.1003 66.6118 79.0105 65.2083 80.4214C63.8049 81.8322 61.8989 82.6286 59.9089 82.6356H21.9391C19.9468 82.6356 18.036 81.8441 16.6273 80.4353C15.2185 79.0266 14.427 77.1158 14.427 75.1235V66.1195C14.4289 64.7139 14.8244 63.3369 15.5688 62.1445C16.3131 60.9522 17.3765 59.9921 18.6385 59.3732C18.0755 58.2976 17.7811 57.1018 17.7804 55.8878V46.897C17.7734 45.554 18.1261 44.2336 18.8016 43.0728C19.4772 41.9121 20.4511 40.9532 21.6222 40.2959C20.9838 39.1737 20.6514 37.9035 20.6585 36.6124V27.6217C20.6632 26.2667 21.0337 24.9382 21.7308 23.7763C22.428 22.6145 23.4259 21.6624 24.6192 21.0205C24.0048 19.9186 23.6822 18.678 23.6818 17.4163V8.41237C23.6853 6.42111 24.4779 4.5124 25.8859 3.10437C27.2939 1.69633 29.2026 0.903759 31.1939 0.900269H50.6541C52.643 0.907244 54.5484 1.70135 55.9535 3.10901C57.3587 4.51667 58.1495 6.42339 58.153 8.41237V17.4163C58.1611 18.6857 57.8429 19.9359 57.2288 21.0469C58.4221 21.6888 59.42 22.6409 60.1171 23.8027C60.8142 24.9646 61.1847 26.2931 61.1895 27.6481V36.5992C61.1965 37.8903 60.8642 39.1605 60.2257 40.2827C61.395 40.9422 62.3674 41.9015 63.0427 43.0617C63.718 44.222 64.0718 45.5413 64.0676 46.8838V55.8746ZM29.2708 6.48927C28.7608 6.99931 28.4742 7.69106 28.4742 8.41237V17.4163C28.4777 18.1366 28.7654 18.8263 29.2746 19.3356C29.7839 19.8449 30.4737 20.1325 31.1939 20.136H50.6541C51.3743 20.1325 52.064 19.8449 52.5733 19.3356C53.0826 18.8263 53.3703 18.1366 53.3737 17.4163V8.41237C53.3737 7.69106 53.0872 6.99931 52.5772 6.48927C52.0671 5.97923 51.3754 5.6927 50.6541 5.6927H31.1939C30.4726 5.6927 29.7808 5.97923 29.2708 6.48927ZM26.2343 25.725C25.7242 26.235 25.4377 26.9268 25.4377 27.6481V36.6388C25.4377 37.3614 25.7238 38.0545 26.2335 38.5666C26.7431 39.0788 27.4349 39.3682 28.1574 39.3717H53.6774C54.4022 39.3717 55.0973 39.0838 55.6098 38.5713C56.1223 38.0588 56.4103 37.3636 56.4103 36.6388V27.6481C56.4068 26.9256 56.1173 26.2338 55.6052 25.7242C55.093 25.2145 54.3999 24.9284 53.6774 24.9284H28.1574C27.4361 24.9284 26.7443 25.215 26.2343 25.725ZM23.3686 44.956C22.8589 45.4682 22.5728 46.1613 22.5728 46.8838V55.8746C22.5728 56.5959 22.8594 57.2876 23.3694 57.7977C23.8794 58.3077 24.5712 58.5942 25.2925 58.5942H56.5555C56.9126 58.5942 57.2663 58.5239 57.5963 58.3872C57.9262 58.2505 58.226 58.0502 58.4786 57.7977C58.7311 57.5451 58.9314 57.2453 59.0681 56.9153C59.2048 56.5854 59.2751 56.2317 59.2751 55.8746V46.8838C59.2752 46.1613 58.989 45.4682 58.4794 44.956C57.9697 44.4439 57.278 44.1544 56.5555 44.1509H25.2925C24.57 44.1544 23.8782 44.4439 23.3686 44.956ZM62.4215 76.1511C62.5582 75.8211 62.6285 75.4674 62.6285 75.1103V66.1063C62.6285 65.385 62.342 64.6933 61.832 64.1832C61.3219 63.6732 60.6302 63.3867 59.9089 63.3867H21.9391C21.2178 63.3867 20.526 63.6732 20.016 64.1832C19.506 64.6933 19.2194 65.385 19.2194 66.1063V75.1103C19.2194 75.4674 19.2898 75.8211 19.4265 76.1511C19.5631 76.481 19.7635 76.7808 20.016 77.0334C20.2686 77.2859 20.5684 77.4863 20.8983 77.6229C21.2283 77.7596 21.582 77.83 21.9391 77.83H59.9089C60.266 77.83 60.6197 77.7596 60.9496 77.6229C61.2796 77.4863 61.5794 77.2859 61.832 77.0334C62.0845 76.7808 62.2848 76.481 62.4215 76.1511ZM26.4015 72.9979C27.7212 72.9979 28.7911 71.9281 28.7911 70.6083C28.7911 69.2886 27.7212 68.2187 26.4015 68.2187C25.0817 68.2187 24.0119 69.2886 24.0119 70.6083C24.0119 71.9281 25.0817 72.9979 26.4015 72.9979ZM32.1445 51.333C32.1445 52.6527 31.0746 53.7226 29.7549 53.7226C28.4351 53.7226 27.3652 52.6527 27.3652 51.333C27.3652 50.0132 28.4351 48.9434 29.7549 48.9434C31.0746 48.9434 32.1445 50.0132 32.1445 51.333ZM32.6198 34.5793C33.9395 34.5793 35.0094 33.5094 35.0094 32.1897C35.0094 30.8699 33.9395 29.8001 32.6198 29.8001C31.3 29.8001 30.2301 30.8699 30.2301 32.1897C30.2301 33.5094 31.3 34.5793 32.6198 34.5793ZM38.0459 12.9143C38.0459 14.2341 36.976 15.304 35.6563 15.304C34.3365 15.304 33.2667 14.2341 33.2667 12.9143C33.2667 11.5946 34.3365 10.5247 35.6563 10.5247C36.976 10.5247 38.0459 11.5946 38.0459 12.9143ZM52.0931 53.7226C53.4129 53.7226 54.4827 52.6527 54.4827 51.333C54.4827 50.0132 53.4129 48.9434 52.0931 48.9434C50.7734 48.9434 49.7035 50.0132 49.7035 51.333C49.7035 52.6527 50.7734 53.7226 52.0931 53.7226ZM51.6178 32.1897C51.6178 33.5094 50.548 34.5793 49.2282 34.5793C47.9085 34.5793 46.8386 33.5094 46.8386 32.1897C46.8386 30.8699 47.9085 29.8001 49.2282 29.8001C50.548 29.8001 51.6178 30.8699 51.6178 32.1897ZM46.1917 15.304C47.5114 15.304 48.5813 14.2341 48.5813 12.9143C48.5813 11.5946 47.5114 10.5247 46.1917 10.5247C44.8719 10.5247 43.8021 11.5946 43.8021 12.9143C43.8021 14.2341 44.8719 15.304 46.1917 15.304ZM54.1762 68.6378C54.5716 68.3732 55.0367 68.2319 55.5125 68.2319C55.8274 68.2302 56.1396 68.2907 56.431 68.41C56.7225 68.5293 56.9875 68.705 57.2108 68.9271C57.434 69.1492 57.6112 69.4132 57.7322 69.704C57.8531 69.9948 57.9153 70.3066 57.9153 70.6215C57.9179 71.0973 57.7792 71.5631 57.5168 71.96C57.2544 72.3569 56.88 72.6669 56.4412 72.8508C56.0024 73.0347 55.5188 73.0842 55.0519 72.993C54.5849 72.9017 54.1555 72.6739 53.8182 72.3384C53.4808 72.0029 53.2507 71.5748 53.1569 71.1084C53.0631 70.6419 53.1099 70.1581 53.2914 69.7183C53.4728 69.2784 53.7808 68.9024 54.1762 68.6378Z" fill="url(#paint0_linear_39_67)"/>
<defs>
<linearGradient id="paint0_linear_39_67" x1="0.0629272" y1="82.6356" x2="89.461" y2="82.6356" gradientUnits="userSpaceOnUse">
<stop stop-color="#C79E6E"/>
<stop offset="1" stop-color="#F8D7A9"/>
</linearGradient>
</defs>
</svg>
