<svg width="69" height="82" viewBox="0 0 69 82" fill="none" xmlns="http://www.w3.org/2000/svg">
<g clip-path="url(#clip0_39_68)">
<path d="M50.419 5.54814e-05H29.1986C26.754 -0.00593843 24.3322 0.473787 22.0718 1.41179C19.8114 2.34978 17.7567 3.72765 16.0253 5.46655C14.2939 7.20544 12.9198 9.27125 11.9815 11.5458C11.0433 13.8203 10.5593 16.2589 10.5573 18.7221V33.9185C6.94953 35.6303 3.98644 38.4697 2.10868 42.0144C0.230916 45.5591 -0.461208 49.6198 0.135228 53.5926C0.731665 57.5655 2.5848 61.2383 5.41907 64.0648C8.25333 66.8913 11.9173 68.7206 15.8662 69.2806V73.9308C15.8541 74.9979 16.0531 76.0568 16.4515 77.0457C16.8499 78.0346 17.4398 78.9337 18.1866 79.6904C18.9335 80.4472 19.8224 81.0466 20.8016 81.4535C21.7808 81.8605 22.8306 82.067 23.8898 82.0608H55.8032C57.914 82.0568 59.9372 81.2102 61.4297 79.7063C62.9222 78.2024 63.7625 76.1639 63.7665 74.0371V69.0679C65.322 68.5091 66.6675 67.4786 67.6181 66.118C68.5687 64.7574 69.0778 63.1336 69.0753 61.4697V18.7221C69.0714 16.2582 68.5856 13.8192 67.6457 11.5446C66.7058 9.27002 65.3302 7.20433 63.5976 5.46563C61.865 3.72693 59.8093 2.3493 57.5481 1.41149C55.2868 0.473678 52.8643 -0.00593774 50.419 5.54814e-05ZM55.8032 76.6509H23.8898C23.1858 76.6509 22.5106 76.3691 22.0128 75.8675C21.515 75.366 21.2354 74.6857 21.2354 73.9763V69.5238H58.3822V73.9763C58.3825 74.6727 58.1132 75.3417 57.6316 75.8412C57.15 76.3406 56.4941 76.6311 55.8032 76.6509ZM63.7665 61.4545C63.7665 62.1638 63.4868 62.8441 62.989 63.3457C62.4912 63.8473 61.8161 64.129 61.1121 64.129H18.5809C15.4894 64.0907 12.5089 62.9623 10.1572 60.94C7.80556 58.9176 6.23128 56.1291 5.70789 53.0589C5.18451 49.9887 5.74509 46.8307 7.29225 44.1336C8.83941 41.4365 11.2754 39.3707 14.177 38.2951C14.3474 38.2101 14.5091 38.1083 14.6596 37.9912C15.9297 37.596 17.2517 37.3962 18.5809 37.3985H26.5442C27.8469 37.539 29.052 38.1599 29.9278 39.1418C30.8035 40.1237 31.2879 41.3972 31.2879 42.7173C31.2879 44.0373 30.8035 45.3108 29.9278 46.2927C29.052 47.2746 27.8469 47.8955 26.5442 48.036H18.5809C17.8769 48.036 17.2018 48.3178 16.704 48.8194C16.2062 49.321 15.9265 50.0012 15.9265 50.7106C15.9265 51.4199 16.2062 52.1002 16.704 52.6018C17.2018 53.1034 17.8769 53.3852 18.5809 53.3852H26.5442C29.3442 53.3852 32.0295 52.2644 34.0094 50.2695C35.9893 48.2746 37.1016 45.5689 37.1016 42.7476H50.3737C52.8463 42.7498 55.2944 42.2534 57.5737 41.2878C59.8531 40.3221 61.9176 38.9068 63.6458 37.125L63.7665 61.4545ZM50.4944 37.3833H35.7291C34.8028 35.7543 33.4651 34.4014 31.8519 33.4619C30.2387 32.5224 28.4075 32.0298 26.5442 32.0342H18.5809C17.6927 32.0383 16.8057 32.1044 15.9265 32.2317V18.7221C15.9305 15.1766 17.3301 11.7775 19.8182 9.27047C22.3064 6.76344 25.6799 5.35323 29.1986 5.3492H50.419C53.9377 5.35323 57.3112 6.76344 59.7994 9.27047C62.2875 11.7775 63.6871 15.1766 63.6911 18.7221V24.0712C63.6871 27.6153 62.287 31.0128 59.7984 33.5174C57.3099 36.0221 53.9363 37.4289 50.419 37.4289L50.4944 37.3833Z" fill="url(#paint0_linear_39_68)"/>
</g>
<defs>
<linearGradient id="paint0_linear_39_68" x1="-0.000102547" y1="82" x2="74.7699" y2="82" gradientUnits="userSpaceOnUse">
<stop stop-color="#C49C6B"/>
<stop offset="1" stop-color="#F7D2A5"/>
</linearGradient>
<clipPath id="clip0_39_68">
<rect width="69" height="82" fill="white"/>
</clipPath>
</defs>
</svg>
