<svg width="83" height="83" viewBox="0 0 83 83" fill="none" xmlns="http://www.w3.org/2000/svg">
<path fill-rule="evenodd" clip-rule="evenodd" d="M31.573 18.3857C31.6619 17.1845 31.3016 15.9923 30.5578 15.0273L30.544 15.0541C29.1 13.1658 28.4023 10.8387 28.5775 8.49477C28.7527 6.15084 29.7891 3.94534 31.4987 2.27827L32.1214 1.6616C32.5876 1.21542 33.2165 0.96521 33.8718 0.96521C34.5271 0.96521 35.156 1.21542 35.6222 1.6616C36.0861 2.11154 36.3466 2.72149 36.3466 3.35745C36.3466 3.99341 36.0861 4.60336 35.6222 5.0533L34.9995 5.65657C34.127 6.50978 33.5995 7.63812 33.5132 8.83629C33.4268 10.0345 33.7873 11.2229 34.5291 12.1853C35.9703 14.0746 36.6663 16.4011 36.4912 18.7443C36.3161 21.0875 35.2814 23.2927 33.5743 24.9611L32.9516 25.551C32.4878 25.9963 31.8612 26.2462 31.2082 26.2462C30.5551 26.2462 29.9285 25.9963 29.4647 25.551C29.0008 25.101 28.7403 24.4911 28.7403 23.8551C28.7403 23.2192 29.0008 22.6092 29.4647 22.1593L30.0735 21.5694C30.9518 20.7171 31.484 19.587 31.573 18.3857ZM16.0013 20.1752C16.7385 21.1402 17.0949 22.3289 17.0061 23.5264C16.9172 24.7238 16.389 25.851 15.517 26.7039L14.8943 27.2938C14.4556 27.7485 14.2165 28.3505 14.2273 28.9729C14.2382 29.5952 14.4982 30.1891 14.9524 30.6292C15.4067 31.0693 16.0197 31.3212 16.662 31.3317C17.3043 31.3422 17.9257 31.1105 18.3951 30.6855L19.0039 30.0822C20.7177 28.4141 21.7556 26.2047 21.9283 23.857C22.1011 21.5093 21.3971 19.1797 19.9448 17.2929C19.2148 16.3244 18.8641 15.1359 18.9554 13.9399C19.0467 12.7439 19.5739 11.6183 20.443 10.7642L21.0518 10.1744C21.5179 9.72283 21.7797 9.1104 21.7797 8.47182C21.7797 7.83324 21.5179 7.22081 21.0518 6.76927C20.5857 6.31772 19.9536 6.06404 19.2945 6.06404C18.6354 6.06404 18.0032 6.31772 17.5372 6.76927L16.9145 7.37253C15.2058 9.04348 14.1715 11.2521 13.9989 13.5983C13.8263 15.9445 14.5268 18.273 15.9736 20.1618L16.0013 20.1752ZM45.1282 20.1752C45.8654 21.1402 46.2218 22.3289 46.133 23.5264C46.0442 24.7238 45.516 25.851 44.6439 26.7039L44.0213 27.2938C43.5607 27.7454 43.3025 28.3547 43.3025 28.9896C43.3025 29.6245 43.5607 30.2338 44.0213 30.6855C44.4874 31.1317 45.1163 31.3819 45.7716 31.3819C46.4269 31.3819 47.0558 31.1317 47.522 30.6855L48.1447 30.0822C49.8539 28.411 50.8874 26.2011 51.0576 23.8542C51.2277 21.5073 50.5231 19.1792 49.0718 17.2929C48.3346 16.3279 47.9782 15.1392 48.067 13.9418C48.1558 12.7443 48.684 11.6172 49.5561 10.7642L50.1649 10.1744C50.576 9.71658 50.7929 9.12488 50.7718 8.5184C50.7507 7.91192 50.4932 7.3357 50.0512 6.90576C49.6092 6.47582 49.0155 6.22409 48.3896 6.20125C47.7637 6.17841 47.1521 6.38616 46.678 6.78267L46.0553 7.38594C44.3466 9.05688 43.3123 11.2655 43.1397 13.6117C42.9671 15.9579 43.6676 18.2864 45.1144 20.1752H45.1282ZM63.4149 78.6041C62.9504 78.154 62.3204 77.9012 61.6635 77.9012H3.40957C2.75267 77.9012 2.12268 78.154 1.65819 78.6041C1.19369 79.0541 0.932739 79.6645 0.932739 80.3009C0.932739 80.9373 1.19369 81.5477 1.65819 81.9977C2.12268 82.4477 2.75267 82.7005 3.40957 82.7005H61.6635C62.3204 82.7005 62.9504 82.4477 63.4149 81.9977C63.8794 81.5477 64.1403 80.9373 64.1403 80.3009C64.1403 79.6645 63.8794 79.0541 63.4149 78.6041ZM3.40957 36.8522H70.9343V36.8656C74.0536 36.8656 77.0452 38.0662 79.2509 40.2031C81.4566 42.3401 82.6958 45.2385 82.6958 48.2607C82.6958 51.2828 81.4566 54.1812 79.2509 56.3182C77.0452 58.4552 74.0536 59.6557 70.9343 59.6557H69.5506C69.2107 59.6804 68.8692 59.6368 68.5475 59.5277C68.2258 59.4187 67.9307 59.2464 67.6809 59.0218C67.431 58.7972 67.2317 58.525 67.0954 58.2223C66.9591 57.9197 66.8888 57.593 66.8888 57.2628C66.8888 56.9325 66.9591 56.6059 67.0954 56.3032C67.2317 56.0005 67.431 55.7283 67.6809 55.5037C67.9307 55.2791 68.2258 55.1069 68.5475 54.9978C68.8692 54.8887 69.2107 54.8451 69.5506 54.8698H70.9343C72.7362 54.8698 74.4642 54.1763 75.7384 52.9419C77.0125 51.7075 77.7283 50.0332 77.7283 48.2875C77.7283 46.5417 77.0125 44.8675 75.7384 43.6331C74.4642 42.3987 72.7362 41.7052 70.9343 41.7052H64.1403V44.3863C64.1293 52.5038 60.7961 60.2857 54.8716 66.0256C48.9472 71.7655 40.915 74.9949 32.5365 75.0055C24.1547 75.0055 16.1161 71.7796 10.1893 66.0374C4.26241 60.2952 0.932739 52.5071 0.932739 44.3863V39.2519C0.932739 38.6154 1.19369 38.0051 1.65819 37.5551C2.12268 37.105 2.75267 36.8522 3.40957 36.8522ZM13.6871 62.6446C18.6872 67.4863 25.4672 70.2062 32.5365 70.2062C39.6023 70.1991 46.3766 67.4765 51.3729 62.6359C56.3692 57.7953 59.1793 51.232 59.1866 44.3863V41.7052H5.87256V44.3863C5.87623 51.2354 8.68708 57.8028 13.6871 62.6446Z" fill="url(#paint0_linear_39_37)"/>
<defs>
<linearGradient id="paint0_linear_39_37" x1="-15.4143" y1="74.6823" x2="89.8193" y2="75.7369" gradientUnits="userSpaceOnUse">
<stop stop-color="#C59C6B"/>
<stop offset="1" stop-color="#F9D3A6"/>
</linearGradient>
</defs>
</svg>
