<svg width="72" height="72" viewBox="0 0 72 72" fill="none" xmlns="http://www.w3.org/2000/svg">
<path fill-rule="evenodd" clip-rule="evenodd" d="M62.6183 0.375244H8.98256C6.61116 0.375244 4.33689 1.31728 2.66006 2.99411C0.983232 4.67094 0.0411987 6.94521 0.0411987 9.3166V62.9523C0.0411987 65.3237 0.983232 67.598 2.66006 69.2748C4.33689 70.9517 6.61116 71.8937 8.98256 71.8937H62.6183C64.9897 71.8937 67.2639 70.9517 68.9408 69.2748C70.6176 67.598 71.5596 65.3237 71.5596 62.9523V9.3166C71.5596 6.94521 70.6176 4.67094 68.9408 2.99411C67.2639 1.31728 64.9897 0.375244 62.6183 0.375244ZM67.1014 62.9523C67.1014 64.138 66.6304 65.2752 65.7919 66.1136C64.9535 66.952 63.8164 67.423 62.6307 67.423H8.98256C7.79686 67.423 6.65972 66.952 5.82131 66.1136C4.98289 65.2752 4.51188 64.138 4.51188 62.9523V9.3166C4.51188 8.1309 4.98289 6.99377 5.82131 6.15535C6.65972 5.31694 7.79686 4.84592 8.98256 4.84592H62.6183C63.2064 4.84429 63.7891 4.95872 64.3329 5.18266C64.8768 5.4066 65.3711 5.73565 65.7876 6.15096C66.204 6.56626 66.5344 7.05965 66.7599 7.60287C66.9853 8.14609 67.1014 8.72846 67.1014 9.3166V62.9523ZM28.4459 17.6032C28.0267 18.0224 27.4581 18.258 26.8653 18.258H20.9913L31.7085 28.9379L28.5418 32.1419L17.8618 21.4619V27.1993C17.8618 27.7922 17.6263 28.3607 17.2071 28.7799C16.7879 29.1991 16.2193 29.4347 15.6265 29.4347C15.0336 29.4347 14.4651 29.1991 14.0459 28.7799C13.6266 28.3607 13.3911 27.7922 13.3911 27.1993V16.0226C13.3863 15.7257 13.4473 15.4315 13.5697 15.1609C13.6921 14.8904 13.8728 14.6503 14.099 14.4579C14.3059 14.2458 14.5531 14.0772 14.8261 13.9621C15.0991 13.8469 15.3923 13.7875 15.6886 13.7873H26.8653C27.4581 13.7873 28.0267 14.0228 28.4459 14.442C28.8651 14.8612 29.1006 15.4298 29.1006 16.0226C29.1006 16.6155 28.8651 17.184 28.4459 17.6032ZM28.6039 40.1146L17.9239 50.7946V45.0572C17.9239 44.7636 17.8661 44.473 17.7538 44.2018C17.6414 43.9306 17.4768 43.6841 17.2692 43.4766C17.0616 43.269 16.8152 43.1043 16.544 42.992C16.2728 42.8797 15.9821 42.8219 15.6886 42.8219C15.395 42.8219 15.1044 42.8797 14.8331 42.992C14.5619 43.1043 14.3155 43.269 14.108 43.4766C13.9004 43.6841 13.7357 43.9306 13.6234 44.2018C13.5111 44.473 13.4532 44.7636 13.4532 45.0572V56.2339C13.4458 56.5312 13.5056 56.8263 13.6281 57.0972C13.7507 57.3682 13.9329 57.6079 14.1611 57.7986C14.3662 58.013 14.6131 58.1831 14.8865 58.2984C15.1599 58.4137 15.454 58.4719 15.7507 58.4692H26.9274C27.5202 58.4692 28.0888 58.2337 28.508 57.8145C28.9272 57.3953 29.1627 56.8267 29.1627 56.2339C29.1627 55.641 28.9272 55.0725 28.508 54.6533C28.0888 54.2341 27.5202 53.9986 26.9274 53.9986H20.9913L31.7085 43.2813L28.6039 40.1146ZM55.9247 42.8343C55.3328 42.8375 54.7662 43.0741 54.3477 43.4926C53.9292 43.9111 53.6926 44.4778 53.6893 45.0696V50.807L43.0466 40.1146L39.8923 43.2813L50.622 53.9986H44.748C44.1551 53.9986 43.5866 54.2341 43.1674 54.6533C42.7482 55.0725 42.5126 55.641 42.5126 56.2339C42.5126 56.8267 42.7482 57.3953 43.1674 57.8145C43.5866 58.2337 44.1551 58.4692 44.748 58.4692H55.8626C56.1591 58.4704 56.4527 58.4116 56.7259 58.2964C56.9991 58.1812 57.2461 58.0118 57.4522 57.7986C57.6748 57.6094 57.8527 57.3731 57.9729 57.1068C58.0932 56.8405 58.1528 56.5509 58.1476 56.2587V45.082C58.1492 44.7885 58.093 44.4975 57.9822 44.2257C57.8714 43.9538 57.7081 43.7065 57.5017 43.4978C57.2953 43.289 57.0498 43.123 56.7792 43.0092C56.5086 42.8953 56.2182 42.8359 55.9247 42.8343ZM44.748 13.7873H55.8502C56.1521 13.7759 56.4532 13.8262 56.735 13.9351C57.0169 14.044 57.2736 14.2092 57.4894 14.4206C57.7156 14.613 57.8963 14.8531 58.0187 15.1237C58.1411 15.3942 58.2021 15.6885 58.1973 15.9854V27.1621C58.1973 27.7549 57.9618 28.3235 57.5426 28.7427C57.1234 29.1619 56.5548 29.3974 55.9619 29.3974C55.3691 29.3974 54.8005 29.1619 54.3813 28.7427C53.9621 28.3235 53.7266 27.7549 53.7266 27.1621V21.4247L43.0466 32.1046L39.8923 28.9379L50.622 18.258H44.748C44.1551 18.258 43.5866 18.0224 43.1674 17.6032C42.7482 17.184 42.5126 16.6155 42.5126 16.0226C42.5126 15.4298 42.7482 14.8612 43.1674 14.442C43.5866 14.0228 44.1551 13.7873 44.748 13.7873Z" fill="url(#paint0_linear_39_44)"/>
<defs>
<linearGradient id="paint0_linear_39_44" x1="-5.76967" y1="71.8937" x2="81.8404" y2="71.8937" gradientUnits="userSpaceOnUse">
<stop stop-color="#C59D6B"/>
<stop offset="1" stop-color="#FAD5A7"/>
</linearGradient>
</defs>
</svg>
