<svg width="23" height="23" viewBox="0 0 23 23" fill="none" xmlns="http://www.w3.org/2000/svg">
<g clip-path="url(#clip0_47_16)">
<path d="M17.5988 16.6405L11.5 22.7393L5.40117 16.6405C4.19495 15.4343 3.37351 13.8974 3.04072 12.2244C2.70793 10.5513 2.87874 8.81709 3.53155 7.24108C4.18436 5.66507 5.28985 4.31804 6.70822 3.37032C8.12659 2.42259 9.79414 1.91675 11.5 1.91675C13.2059 1.91675 14.8734 2.42259 16.2918 3.37032C17.7102 4.31804 18.8156 5.66507 19.4685 7.24108C20.1213 8.81709 20.2921 10.5513 19.9593 12.2244C19.6265 13.8974 18.8051 15.4343 17.5988 16.6405ZM11.5 14.375C12.5167 14.375 13.4917 13.9711 14.2106 13.2522C14.9295 12.5334 15.3333 11.5583 15.3333 10.5417C15.3333 9.52501 14.9295 8.54999 14.2106 7.8311C13.4917 7.11221 12.5167 6.70834 11.5 6.70834C10.4833 6.70834 9.50832 7.11221 8.78943 7.8311C8.07054 8.54999 7.66667 9.52501 7.66667 10.5417C7.66667 11.5583 8.07054 12.5334 8.78943 13.2522C9.50832 13.9711 10.4833 14.375 11.5 14.375ZM11.5 12.4583C10.9917 12.4583 10.5042 12.2564 10.1447 11.897C9.78527 11.5375 9.58334 11.05 9.58334 10.5417C9.58334 10.0333 9.78527 9.54583 10.1447 9.18639C10.5042 8.82694 10.9917 8.62501 11.5 8.62501C12.0083 8.62501 12.4958 8.82694 12.8553 9.18639C13.2147 9.54583 13.4167 10.0333 13.4167 10.5417C13.4167 11.05 13.2147 11.5375 12.8553 11.897C12.4958 12.2564 12.0083 12.4583 11.5 12.4583Z" fill="white"/>
</g>
<defs>
<clipPath id="clip0_47_16">
<rect width="23" height="23" fill="white"/>
</clipPath>
</defs>
</svg>
