<svg width="107" height="54" viewBox="0 0 107 54" fill="none" xmlns="http://www.w3.org/2000/svg">
<path fill-rule="evenodd" clip-rule="evenodd" d="M88.4628 18.4683H84.94L70.0193 3.50291C68.372 1.86037 66.1419 0.935685 63.8154 0.930546H12.3202C11.0535 0.9292 9.81314 1.29229 8.74719 1.97647C7.68123 2.66066 6.8347 3.63704 6.30864 4.7891L5.10632 7.30136L5.08156 7.35634C3.25021 11.4224 2.74123 12.5524 0.838103 20.1632C0.819754 20.339 0.819754 20.5163 0.838103 20.6921V38.1938C0.838103 39.9376 1.531 41.6101 2.76436 42.8431C3.99773 44.0762 5.67053 44.769 7.41477 44.769H9.8194C10.3196 47.2473 11.6622 49.4762 13.6192 51.0774C15.5763 52.6786 18.0272 53.5535 20.5561 53.5535C23.0849 53.5535 25.5359 52.6786 27.4929 51.0774C29.45 49.4762 30.7925 47.2473 31.2927 44.769H71.1495C71.6558 47.2438 73.0015 49.4679 74.9589 51.0651C76.9164 52.6623 79.3655 53.5347 81.8922 53.5347C84.4188 53.5347 86.868 52.6623 88.8254 51.0651C90.7829 49.4679 92.1285 47.2438 92.6349 44.769H97.2397C99.5654 44.7658 101.795 43.8399 103.438 42.1946C105.082 40.5493 106.005 38.3192 106.005 35.9941V29.4189C106.005 18.4683 99.3678 18.4683 88.4628 18.4683ZM53.3913 5.31799H63.8154C64.3899 5.31724 64.9589 5.43054 65.4893 5.65133C66.0198 5.87211 66.5011 6.19599 66.9053 6.60418L78.7722 18.4683H53.3913V5.31799ZM27.0846 5.31799H49.0028V18.4683H27.0846V5.31799ZM9.19419 9.1525C9.53084 8.41926 9.91558 7.58985 10.3965 6.60418C10.5671 6.23313 10.8372 5.91656 11.1767 5.68954C11.5163 5.46252 11.912 5.33392 12.3202 5.31799H22.6962V18.4683H5.79164C6.54745 15.2377 7.68987 12.1099 9.19419 9.1525ZM20.5561 49.1444C19.2553 49.1444 17.9838 48.7588 16.9023 48.0363C15.8207 47.3138 14.9778 46.2869 14.48 45.0854C13.9823 43.884 13.852 42.5619 14.1058 41.2865C14.3595 40.011 14.9859 38.8394 15.9057 37.9199C16.8254 37.0003 17.9973 36.3741 19.273 36.1204C20.5488 35.8667 21.8711 35.9969 23.0729 36.4946C24.2746 36.9922 25.3017 37.835 26.0244 38.9163C26.747 39.9975 27.1327 41.2688 27.1327 42.5692C27.1328 43.4367 26.9611 44.2957 26.6276 45.0966C26.294 45.8975 25.8053 46.6245 25.1895 47.2356C24.5737 47.8468 23.843 48.3302 23.0395 48.6577C22.2361 48.9853 21.3757 49.1507 20.508 49.1444H20.5561ZM81.9343 49.1444C80.6335 49.1444 79.362 48.7588 78.2805 48.0363C77.1989 47.3138 76.356 46.2869 75.8582 45.0854C75.3604 43.884 75.2302 42.5619 75.484 41.2865C75.7377 40.011 76.3641 38.8394 77.2839 37.9199C78.2036 37.0003 79.3755 36.3741 80.6512 36.1204C81.927 35.8667 83.2493 35.9969 84.451 36.4946C85.6528 36.9922 86.6799 37.835 87.4026 38.9163C88.1252 39.9975 88.5109 41.2688 88.5109 42.5692C88.5109 43.4367 88.3392 44.2957 88.0057 45.0966C87.6722 45.8975 87.1835 46.6245 86.5677 47.2356C85.9519 47.8468 85.2212 48.3302 84.4177 48.6577C83.6142 48.9853 82.7539 49.1507 81.8862 49.1444H81.9343ZM97.2397 33.8064H101.616V35.9941C101.618 36.5697 101.506 37.1399 101.286 37.6722C101.067 38.2044 100.745 38.6882 100.339 39.0957C99.932 39.5033 99.4491 39.8267 98.9173 40.0473C98.3855 40.2679 97.8155 40.3815 97.2397 40.3815H92.6349C92.1285 37.9067 90.7829 35.6826 88.8254 34.0854C86.868 32.4881 84.4188 31.6158 81.8922 31.6158C79.3655 31.6158 76.9164 32.4881 74.9589 34.0854C73.0015 35.6826 71.6558 37.9067 71.1495 40.3815H31.2447C30.7444 37.9032 29.4019 35.6743 27.4448 34.0731C25.4878 32.4718 23.0368 31.597 20.508 31.597C17.9791 31.597 15.5282 32.4718 13.5711 34.0731C11.6141 35.6743 10.2715 37.9032 9.7713 40.3815H7.36667C7.0783 40.3831 6.79246 40.3277 6.52559 40.2184C6.25871 40.1092 6.01606 39.9483 5.81159 39.745C5.60713 39.5417 5.44487 39.3 5.33415 39.0338C5.22343 38.7676 5.16643 38.4821 5.16644 38.1938V22.8437H88.4628C100.125 22.8437 101.616 23.0962 101.616 29.4189H97.2397C96.9379 29.3966 96.6347 29.4367 96.3492 29.5368C96.0636 29.6369 95.8017 29.7949 95.58 30.0008C95.3582 30.2066 95.1813 30.4561 95.0604 30.7334C94.9394 31.0107 94.877 31.3101 94.877 31.6126C94.877 31.9152 94.9394 32.2145 95.0604 32.4918C95.1813 32.7692 95.3582 33.0186 95.58 33.2245C95.8017 33.4304 96.0636 33.5883 96.3492 33.6884C96.6347 33.7886 96.9379 33.8287 97.2397 33.8064ZM62.1562 25.0435H59.968C59.6806 25.0435 59.3961 25.1001 59.1306 25.21C58.8651 25.3199 58.6239 25.4811 58.4207 25.6842C58.2175 25.8874 58.0563 26.1286 57.9463 26.394C57.8363 26.6594 57.7797 26.9439 57.7797 27.2312C57.7797 27.5185 57.8363 27.803 57.9463 28.0684C58.0563 28.3338 58.2175 28.575 58.4207 28.7781C58.6239 28.9813 58.8651 29.1424 59.1306 29.2524C59.3961 29.3623 59.6806 29.4189 59.968 29.4189H62.1562C62.4435 29.4189 62.7281 29.3623 62.9936 29.2524C63.2591 29.1424 63.5003 28.9813 63.7035 28.7781C63.9067 28.575 64.0679 28.3338 64.1778 28.0684C64.2878 27.803 64.3444 27.5185 64.3444 27.2312C64.3444 26.9439 64.2878 26.6594 64.1778 26.394C64.0679 26.1286 63.9067 25.8874 63.7035 25.6842C63.5003 25.4811 63.2591 25.3199 62.9936 25.21C62.7281 25.1001 62.4435 25.0435 62.1562 25.0435ZM31.4731 25.0435H33.6613C34.2417 25.0435 34.7982 25.274 35.2086 25.6842C35.619 26.0945 35.8495 26.651 35.8495 27.2312C35.8495 27.8114 35.619 28.3679 35.2086 28.7781C34.7982 29.1884 34.2417 29.4189 33.6613 29.4189H31.4731C31.1857 29.4189 30.9012 29.3623 30.6357 29.2524C30.3702 29.1424 30.129 28.9813 29.9258 28.7781C29.7226 28.575 29.5614 28.3338 29.4514 28.0684C29.3415 27.803 29.2849 27.5185 29.2849 27.2312C29.2849 26.9439 29.3415 26.6594 29.4514 26.394C29.5614 26.1286 29.7226 25.8874 29.9258 25.6842C30.129 25.4811 30.3702 25.3199 30.6357 25.21C30.9012 25.1001 31.1857 25.0435 31.4731 25.0435Z" fill="url(#paint0_linear_39_54)"/>
<defs>
<linearGradient id="paint0_linear_39_54" x1="5.16243" y1="53.5438" x2="114.773" y2="53.5438" gradientUnits="userSpaceOnUse">
<stop stop-color="#C39B69"/>
<stop offset="1" stop-color="#F7D4AA"/>
</linearGradient>
</defs>
</svg>
