<svg width="1669" height="224" viewBox="0 0 1669 224" fill="none" xmlns="http://www.w3.org/2000/svg">
<path d="M0.0100007 5.09998V219H58.29V144.91H121.84L165.55 219H230.03L182.6 138.71C195.93 133.75 206.16 125.69 213.29 114.84C220.42 103.99 224.14 90.35 224.14 73.92C224.14 51.91 217.32 34.86 203.68 22.77C189.73 10.99 170.51 5.09998 145.4 5.09998H0.0100007ZM164.93 77.64C164.93 84.77 162.76 90.35 158.42 94.69C154.08 99.34 146.95 101.51 136.72 101.51H58.29V48.19H136.72C146.95 48.19 154.39 50.36 158.73 54.39C162.76 58.73 164.93 64.31 164.93 71.44V77.64ZM260.059 5.09998V219H456.289V174.36H318.339V131.27H423.739V88.18H318.339V49.74H455.049V5.09998H260.059ZM479.575 152.35C481.745 177.46 491.975 195.44 510.575 206.6C529.175 217.76 558.005 223.34 596.755 223.34C634.885 223.34 663.095 217.76 681.695 206.6C700.295 195.75 709.595 177.46 709.595 152.35C709.595 129.41 700.915 113.91 683.245 106.16C665.575 98.41 646.045 93.45 624.965 91.28C603.885 89.11 584.665 87.25 566.995 85.7C549.325 84.15 540.335 77.95 540.335 67.1C540.335 57.8 544.675 51.6 553.355 48.19C561.725 45.09 575.365 43.54 593.655 43.54C609.155 43.54 621.555 45.09 630.855 48.5C640.155 51.91 645.425 58.42 646.975 68.65H706.185C704.015 44.47 693.475 27.11 674.565 16.57C655.345 6.02999 628.375 0.759983 593.655 0.759983C559.245 0.759983 531.965 6.02999 512.435 16.26C492.905 26.8 482.985 44.16 482.985 68.03C482.985 91.9 491.975 108.02 509.645 115.77C527.315 123.83 546.535 128.79 567.615 130.96C588.695 133.13 608.225 134.99 625.895 136.54C643.565 138.09 652.245 144.91 652.245 156.38C652.245 165.37 647.595 171.88 638.605 175.29C629.305 178.7 615.355 180.56 596.755 180.56C578.775 180.56 565.135 178.7 555.835 174.98C546.535 171.26 540.955 163.82 538.785 152.35H479.575ZM803.545 52.53V219H861.825V52.53H946.765V5.09998H718.605V52.53H803.545ZM1008.24 5.09998L915.864 219H970.424L990.574 171.57H1099.69L1119.84 219H1180.6L1088.53 5.09998H1008.24ZM1008.55 129.41L1045.13 43.23L1081.71 129.41H1008.55ZM1202.17 5.09998V219H1260.45V144.91H1324L1367.71 219H1432.19L1384.76 138.71C1398.09 133.75 1408.32 125.69 1415.45 114.84C1422.58 103.99 1426.3 90.35 1426.3 73.92C1426.3 51.91 1419.48 34.86 1405.84 22.77C1391.89 10.99 1372.67 5.09998 1347.56 5.09998H1202.17ZM1367.09 77.64C1367.09 84.77 1364.92 90.35 1360.58 94.69C1356.24 99.34 1349.11 101.51 1338.88 101.51H1260.45V48.19H1338.88C1349.11 48.19 1356.55 50.36 1360.89 54.39C1364.92 58.73 1367.09 64.31 1367.09 71.44V77.64ZM1524.96 52.53V219H1583.24V52.53H1668.18V5.09998H1440.02V52.53H1524.96Z" fill="white"/>
</svg>
