<svg width="1648" height="221" viewBox="0 0 1648 221" fill="none" xmlns="http://www.w3.org/2000/svg">
<path d="M0.726001 4.85998V216H58.254V142.866H120.984L164.13 216H227.778L180.96 136.746C194.118 131.85 204.216 123.894 211.254 113.184C218.292 102.474 221.964 89.01 221.964 72.792C221.964 51.066 215.232 34.236 201.768 22.302C187.998 10.674 169.026 4.85998 144.24 4.85998H0.726001ZM163.518 76.464C163.518 83.502 161.376 89.01 157.092 93.294C152.808 97.884 145.77 100.026 135.672 100.026H58.254V47.394H135.672C145.77 47.394 153.114 49.536 157.398 53.514C161.376 57.798 163.518 63.306 163.518 70.344V76.464ZM257.419 4.85998V216H451.117V171.936H314.947V129.402H418.987V86.868H314.947V48.924H449.893V4.85998H257.419ZM474.103 150.21C476.245 174.996 486.343 192.744 504.703 203.76C523.063 214.776 551.521 220.284 589.771 220.284C627.409 220.284 655.255 214.776 673.615 203.76C691.975 193.05 701.155 174.996 701.155 150.21C701.155 127.566 692.587 112.266 675.145 104.616C657.703 96.966 638.425 92.07 617.617 89.928C596.809 87.786 577.837 85.95 560.395 84.42C542.953 82.89 534.079 76.77 534.079 66.06C534.079 56.88 538.363 50.76 546.931 47.394C555.193 44.334 568.657 42.804 586.711 42.804C602.011 42.804 614.251 44.334 623.431 47.7C632.611 51.066 637.813 57.492 639.343 67.59H697.789C695.647 43.722 685.243 26.586 666.577 16.182C647.605 5.77799 620.983 0.575983 586.711 0.575983C552.745 0.575983 525.817 5.77799 506.539 15.876C487.261 26.28 477.469 43.416 477.469 66.978C477.469 90.54 486.343 106.452 503.785 114.102C521.227 122.058 540.199 126.954 561.007 129.096C581.815 131.238 601.093 133.074 618.535 134.604C635.977 136.134 644.545 142.866 644.545 154.188C644.545 163.062 639.955 169.488 631.081 172.854C621.901 176.22 608.131 178.056 589.771 178.056C572.023 178.056 558.559 176.22 549.379 172.548C540.199 168.876 534.691 161.532 532.549 150.21H474.103ZM793.892 51.678V216H851.42V51.678H935.264V4.85998H710.048V51.678H793.892ZM995.95 4.85998L904.762 216H958.618L978.508 169.182H1086.22L1106.11 216H1166.09L1075.2 4.85998H995.95ZM996.256 127.566L1032.36 42.498L1068.47 127.566H996.256ZM1187.37 4.85998V216H1244.9V142.866H1307.63L1350.78 216H1414.42L1367.61 136.746C1380.76 131.85 1390.86 123.894 1397.9 113.184C1404.94 102.474 1408.61 89.01 1408.61 72.792C1408.61 51.066 1401.88 34.236 1388.41 22.302C1374.64 10.674 1355.67 4.85998 1330.89 4.85998H1187.37ZM1350.16 76.464C1350.16 83.502 1348.02 89.01 1343.74 93.294C1339.45 97.884 1332.42 100.026 1322.32 100.026H1244.9V47.394H1322.32C1332.42 47.394 1339.76 49.536 1344.04 53.514C1348.02 57.798 1350.16 63.306 1350.16 70.344V76.464ZM1506 51.678V216H1563.53V51.678H1647.37V4.85998H1422.16V51.678H1506Z" fill="white" fill-opacity="0.2"/>
</svg>
