<svg width="120" height="81" viewBox="0 0 120 81" fill="none" xmlns="http://www.w3.org/2000/svg">
<g clip-path="url(#clip0_39_70)">
<path d="M119.604 48.5118C119.341 48.0514 118.952 47.6739 118.481 47.4225C118.011 47.1711 117.478 47.0561 116.945 47.0907H85.141C84.4599 47.0768 83.7946 47.2947 83.2565 47.708C82.7184 48.1213 82.3402 48.705 82.1852 49.3612C82.1104 49.7746 82.1281 50.1993 82.2371 50.6053C82.346 51.0113 82.5437 51.3887 82.816 51.711C83.0883 52.0333 83.4287 52.2927 83.8133 52.4709C84.1979 52.649 84.6172 52.7417 85.0419 52.7423H108.556L78.0899 75.3484H32.0021C25.2103 75.4122 18.662 72.8485 13.7539 68.2042C8.8459 63.56 5.96653 57.2026 5.72995 50.4882C5.64584 46.277 6.61844 42.1108 8.56071 38.3625C10.503 34.6141 13.3544 31.4005 16.8597 29.0091C17.8441 28.302 18.9013 27.6997 20.0137 27.2123L20.3935 27.0327C23.8084 25.3649 27.5662 24.4985 31.3746 24.5009H32.8113C38.0538 24.4305 43.1201 26.3714 46.947 29.9163C50.774 33.4612 53.0642 38.3345 53.3369 43.5136C53.4392 46.1737 52.9975 48.8269 52.0384 51.3142C51.0793 53.8015 49.6226 56.0716 47.7554 57.9887C45.8882 59.9059 43.649 61.4304 41.1719 62.4711C38.6949 63.5119 36.0309 64.0473 33.3397 64.0454H31.8205C28.1963 64.0673 24.6922 62.7607 21.9844 60.3779C19.2766 57.995 17.5569 54.7047 17.1569 51.1416C16.9862 49.2022 17.2225 47.2488 17.8509 45.404C18.4794 43.5592 19.4865 41.8628 20.8091 40.4211C22.1316 38.9795 23.7411 37.8237 25.5365 37.0264C27.3319 36.2291 29.2746 35.8073 31.2425 35.7877C31.6177 35.7962 31.9909 35.7316 32.3408 35.5976C32.6907 35.4635 33.0105 35.2625 33.2819 35.0062C33.5533 34.7499 33.771 34.4432 33.9226 34.1036C34.0742 33.7641 34.1567 33.3983 34.1653 33.0272C34.174 32.6561 34.1087 32.287 33.9732 31.9409C33.8376 31.5947 33.6345 31.2784 33.3753 31.01C33.1162 30.7415 32.8061 30.5261 32.4628 30.3762C32.1196 30.2263 31.7498 30.1447 31.3746 30.1361C26.071 30.1989 21.0099 32.3432 17.3046 36.0971C13.5993 39.8511 11.5533 44.9073 11.6168 50.1534C11.6803 55.3994 13.8481 60.4057 17.6432 64.0708C21.4383 67.736 26.5499 69.7597 31.8535 69.6969H33.3727C38.3049 69.6982 43.1326 68.2916 47.2767 65.6461C47.3459 65.6325 47.4093 65.5983 47.4583 65.5481L76.1909 46.6171C80.7724 43.5795 84.2466 39.1667 86.1015 34.0288C87.9565 28.8909 88.0943 23.2996 86.4945 18.0784C84.8947 12.8573 81.6419 8.28241 77.2154 5.0277C72.7889 1.77299 67.4227 0.0105441 61.9072 -3.59671e-06C57.6801 -0.0128937 53.5177 1.02625 49.8032 3.02177H49.7206C49.7206 3.02177 15.8194 22.9818 14.9607 23.5535C10.2612 26.4043 6.40396 30.4296 3.77752 35.224C1.15109 40.0185 -0.151846 45.4129 -6.72555e-05 50.8639C0.350451 59.0085 3.88192 66.701 9.85094 72.322C15.82 77.9429 23.7609 81.0539 32.0021 81H79.0477C79.6454 80.9872 80.2236 80.787 80.699 80.4283L118.894 52.2686C119.472 51.8489 119.868 51.227 120 50.5291C120.132 49.8313 119.99 49.11 119.604 48.5118ZM51.6196 7.90562C56.1459 5.56374 61.4066 5.02397 66.3225 6.39707C71.2383 7.77017 75.4366 10.952 78.056 15.2898C80.6754 19.6277 81.5173 24.7925 80.409 29.7249C79.3007 34.6572 76.3262 38.9831 72.0957 41.8149L56.8542 51.7949C58.0208 48.0416 58.2975 44.0728 57.6629 40.1966C57.0283 36.3204 55.4994 32.6409 53.1949 29.4435C50.8904 26.2462 47.8722 23.617 44.3744 21.7599C40.8767 19.9028 36.9934 18.8678 33.0259 18.735L51.6196 7.90562Z" fill="url(#paint0_linear_39_70)"/>
</g>
<defs>
<linearGradient id="paint0_linear_39_70" x1="-9.25304e-05" y1="81" x2="124.879" y2="81" gradientUnits="userSpaceOnUse">
<stop stop-color="#C59C6B"/>
<stop offset="1" stop-color="#FAD8AB"/>
</linearGradient>
<clipPath id="clip0_39_70">
<rect width="120" height="81" fill="white"/>
</clipPath>
</defs>
</svg>
