<svg width="82" height="83" viewBox="0 0 82 83" fill="none" xmlns="http://www.w3.org/2000/svg">
<path fill-rule="evenodd" clip-rule="evenodd" d="M69.0285 51.7003H24.5929L30.5327 18.0148H40.9374V13.2178H27.3569C23.9289 13.2143 20.6423 11.851 18.2183 9.42701C15.7944 7.00304 14.431 3.71645 14.4275 0.288452H9.64378C9.64314 3.00844 10.2699 5.69194 11.4752 8.13028C12.6805 10.5686 14.432 12.6961 16.5935 14.3473L9.94941 52.0325C7.09762 52.6948 4.56001 54.3169 2.76162 56.6272C0.963231 58.9374 0.0132861 61.7955 0.0708945 64.7226C0.128503 67.6497 1.19017 70.4682 3.07806 72.7058C4.96596 74.9435 7.56543 76.4646 10.4411 77.0142V82.0238H15.2248V77.2401H66.6366V82.0238H71.4204V77.0142C74.5431 76.4189 77.3314 74.6803 79.2403 72.1383C81.1492 69.5963 82.0414 66.4337 81.7423 63.2689C81.4433 60.1041 79.9746 57.1646 77.6233 55.0251C75.2721 52.8857 72.2074 51.7001 69.0285 51.7003ZM21.0184 16.8322C22.5155 17.411 24.0848 17.7821 25.6826 17.9351L19.7295 51.7003H14.866L21.0184 16.8322ZM69.0285 72.4431H12.8329C10.7184 72.4431 8.69046 71.6031 7.19526 70.1079C5.70005 68.6126 4.86005 66.5847 4.86005 64.4702C4.86005 62.3556 5.70005 60.3277 7.19526 58.8325C8.69046 57.3373 10.7184 56.4973 12.8329 56.4973H69.0285C71.143 56.4973 73.171 57.3373 74.6662 58.8325C76.1614 60.3277 77.0014 62.3556 77.0014 64.4702C77.0014 66.5847 76.1614 68.6126 74.6662 70.1079C73.171 71.6031 71.143 72.4431 69.0285 72.4431ZM12.8328 61.2677C12.1983 61.2625 11.5765 61.4458 11.0464 61.7945C10.5163 62.1431 10.1017 62.6414 9.85523 63.2261C9.60877 63.8108 9.54154 64.4555 9.66209 65.0785C9.78264 65.7014 10.0855 66.2745 10.5323 66.7251C10.9791 67.1756 11.5497 67.4833 12.1716 67.609C12.7935 67.7347 13.4388 67.6729 14.0255 67.4313C14.6122 67.1897 15.114 66.7793 15.467 66.2521C15.8201 65.7249 16.0086 65.1047 16.0086 64.4702C16.0104 64.0514 15.9296 63.6363 15.771 63.2487C15.6123 62.8611 15.3789 62.5086 15.084 62.2112C14.7891 61.9138 14.4385 61.6775 14.0522 61.5156C13.666 61.3537 13.2516 61.2695 12.8328 61.2677ZM72.2175 64.4702C72.2175 66.2315 70.7897 67.6593 69.0283 67.6593C67.267 67.6593 65.8392 66.2315 65.8392 64.4702C65.8392 62.7089 67.267 61.281 69.0283 61.281C70.7897 61.281 72.2175 62.7089 72.2175 64.4702Z" fill="url(#paint0_linear_39_49)"/>
<defs>
<linearGradient id="paint0_linear_39_49" x1="-11.1756" y1="82.0238" x2="81.7984" y2="82.0238" gradientUnits="userSpaceOnUse">
<stop stop-color="#C79F6D"/>
<stop offset="1" stop-color="#F6D4A6"/>
</linearGradient>
</defs>
</svg>
