<svg width="13" height="14" viewBox="0 0 13 14" fill="none" xmlns="http://www.w3.org/2000/svg">
<path d="M10.4775 9.85245L6.5 13.83L2.5225 9.85245C1.73584 9.06578 1.20012 8.0635 0.98308 6.97236C0.766044 5.88122 0.877442 4.75022 1.30319 3.72239C1.72893 2.69456 2.4499 1.81606 3.37493 1.19798C4.29995 0.579899 5.38749 0.25 6.5 0.25C7.61252 0.25 8.70005 0.579899 9.62508 1.19798C10.5501 1.81606 11.2711 2.69456 11.6968 3.72239C12.1226 4.75022 12.234 5.88122 12.0169 6.97236C11.7999 8.0635 11.2642 9.06578 10.4775 9.85245ZM6.5 8.37495C7.16304 8.37495 7.79893 8.11156 8.26777 7.64272C8.73661 7.17388 9 6.53799 9 5.87495C9 5.21191 8.73661 4.57603 8.26777 4.10718C7.79893 3.63834 7.16304 3.37495 6.5 3.37495C5.83696 3.37495 5.20108 3.63834 4.73224 4.10718C4.26339 4.57603 4 5.21191 4 5.87495C4 6.53799 4.26339 7.17388 4.73224 7.64272C5.20108 8.11156 5.83696 8.37495 6.5 8.37495ZM6.5 7.12495C6.16848 7.12495 5.85054 6.99325 5.61612 6.75883C5.3817 6.52441 5.25 6.20647 5.25 5.87495C5.25 5.54343 5.3817 5.22549 5.61612 4.99107C5.85054 4.75665 6.16848 4.62495 6.5 4.62495C6.83152 4.62495 7.14947 4.75665 7.38389 4.99107C7.61831 5.22549 7.75 5.54343 7.75 5.87495C7.75 6.20647 7.61831 6.52441 7.38389 6.75883C7.14947 6.99325 6.83152 7.12495 6.5 7.12495Z" fill="white"/>
</svg>
