<svg width="14" height="15" viewBox="0 0 14 15" fill="none" xmlns="http://www.w3.org/2000/svg">
<path d="M13.9992 11.1833V14.13C13.9993 14.341 13.9247 14.5441 13.7905 14.6985C13.6562 14.8528 13.4724 14.9469 13.2759 14.9617C12.9361 14.9867 12.6584 15 12.4438 15C5.57091 15 0 9.03083 0 1.66667C0 1.43667 0.011666 1.13917 0.0357758 0.775C0.0495591 0.564537 0.137333 0.367509 0.281387 0.223674C0.425441 0.079839 0.61505 -9.53609e-05 0.811955 2.13816e-07H3.56202C3.65849 -0.000104445 3.75156 0.0382159 3.82313 0.107517C3.89471 0.176818 3.93969 0.272152 3.94934 0.375C3.96722 0.566667 3.98356 0.719167 3.99911 0.835C4.15367 1.99077 4.47042 3.11486 4.93861 4.16917C5.0125 4.33583 4.96428 4.535 4.82429 4.64167L3.14594 5.92667C4.17212 8.48871 6.07764 10.5305 8.46875 11.63L9.66646 9.835C9.71542 9.76167 9.78684 9.70907 9.86828 9.68638C9.94972 9.66369 10.036 9.67234 10.1121 9.71083C11.096 10.2116 12.1448 10.5501 13.223 10.715C13.3311 10.7317 13.4735 10.75 13.6508 10.7683C13.7466 10.7789 13.8354 10.8271 13.8999 10.9038C13.9645 10.9805 14.0001 11.0801 14 11.1833H13.9992Z" fill="white"/>
</svg>
