<svg width="13" height="13" viewBox="0 0 13 13" fill="none" xmlns="http://www.w3.org/2000/svg">
<path d="M0.252508 12.75L1.09751 9.645C0.54072 8.69053 0.248193 7.605 0.250008 6.5C0.250008 3.04813 3.04813 0.25 6.50001 0.25C9.95188 0.25 12.75 3.04813 12.75 6.5C12.75 9.95187 9.95188 12.75 6.50001 12.75C5.39549 12.7518 4.31042 12.4595 3.35626 11.9031L0.252508 12.75ZM4.24438 3.5675C4.16367 3.57251 4.0848 3.59377 4.01251 3.63C3.94471 3.66839 3.88282 3.71639 3.82876 3.7725C3.75376 3.84313 3.71126 3.90437 3.66563 3.96375C3.43464 4.26437 3.31039 4.63339 3.31251 5.0125C3.31376 5.31875 3.39376 5.61688 3.51876 5.89563C3.77438 6.45937 4.19501 7.05625 4.75063 7.60938C4.88438 7.7425 5.01501 7.87625 5.15563 8.00063C5.84525 8.60779 6.66704 9.04565 7.55563 9.27938L7.91126 9.33375C8.02688 9.34 8.14251 9.33125 8.25876 9.32562C8.44078 9.31623 8.61852 9.26694 8.77938 9.18125C8.88313 9.12625 8.93188 9.09875 9.01876 9.04375C9.01876 9.04375 9.04563 9.02625 9.09688 8.9875C9.18126 8.925 9.23313 8.88062 9.30313 8.8075C9.35501 8.75375 9.40001 8.69063 9.43438 8.61875C9.48313 8.51688 9.53188 8.3225 9.55188 8.16062C9.56688 8.03687 9.56251 7.96938 9.56063 7.9275C9.55813 7.86063 9.50251 7.79125 9.44188 7.76188L9.07813 7.59875C9.07813 7.59875 8.53438 7.36188 8.20251 7.21063C8.16752 7.19537 8.13002 7.18669 8.09188 7.185C8.04912 7.18061 8.00591 7.18542 7.96517 7.19911C7.92442 7.2128 7.88707 7.23505 7.85563 7.26437V7.26312C7.85251 7.26312 7.81063 7.29875 7.35876 7.84625C7.33282 7.8811 7.2971 7.90744 7.25613 7.92191C7.21517 7.93638 7.17083 7.93833 7.12876 7.9275C7.08803 7.91661 7.04814 7.90283 7.00938 7.88625C6.93188 7.85375 6.90501 7.84125 6.85188 7.81813L6.84876 7.81688C6.4912 7.66077 6.16015 7.4499 5.86751 7.19188C5.78876 7.12313 5.71563 7.04812 5.64063 6.97563C5.39474 6.74015 5.18045 6.47376 5.00313 6.18313L4.96626 6.12375C4.93977 6.08385 4.91836 6.04081 4.90251 5.99563C4.87876 5.90375 4.94063 5.83 4.94063 5.83C4.94063 5.83 5.09251 5.66375 5.16313 5.57375C5.22194 5.49895 5.2768 5.42114 5.32751 5.34063C5.40126 5.22188 5.42438 5.1 5.38563 5.00563C5.21063 4.57812 5.02938 4.1525 4.84313 3.73C4.80626 3.64625 4.69688 3.58625 4.59751 3.57437C4.56376 3.57062 4.53001 3.56687 4.49626 3.56437C4.41232 3.5602 4.32822 3.56104 4.24438 3.56687V3.5675Z" fill="white"/>
</svg>
