<svg width="70" height="35" viewBox="0 0 70 35" fill="none" xmlns="http://www.w3.org/2000/svg">
<path fill-rule="evenodd" clip-rule="evenodd" d="M34.2482 34.8535H38.4324C38.4324 34.8535 39.6963 34.7319 40.3416 34.1222C40.9355 33.5625 40.9165 32.5114 40.9165 32.5114C40.9165 32.5114 40.8348 27.5907 43.4405 26.8661C46.0091 26.1523 49.3076 31.6219 52.8038 33.7249C55.4475 35.3166 57.4564 34.9676 57.4564 34.9676L66.8045 34.8535C66.8045 34.8535 71.6948 34.5894 69.376 31.2196C69.186 30.9439 68.0257 28.7267 62.4255 24.1709C56.5641 19.4026 57.3491 20.1738 64.4098 11.9257C68.7099 6.9026 70.429 3.8359 69.892 2.52244C69.3798 1.27144 66.2172 1.6021 66.2172 1.6021L55.6917 1.65957C55.6917 1.65957 54.9115 1.56628 54.3328 1.86946C53.7674 2.1668 53.4034 2.85976 53.4034 2.85976C53.4034 2.85976 51.7375 6.74685 49.5157 10.0526C44.8289 17.028 42.9549 17.3961 42.1889 16.963C40.4071 15.9536 40.8519 12.9077 40.8519 10.7439C40.8519 3.98416 42.0217 1.16567 38.574 0.436059C37.4298 0.193689 36.5879 0.0337746 33.6619 0.00795513C29.9063 -0.0261933 26.7276 0.0179487 24.9277 0.790868C23.7303 1.30476 22.8067 2.44998 23.3692 2.51578C24.0648 2.5974 25.6404 2.88808 26.4758 3.88505C27.5543 5.17102 27.5163 8.05948 27.5163 8.05948C27.5163 8.05948 28.1359 16.0169 26.069 17.0055C24.6502 17.6835 22.704 16.2992 18.5256 9.97095C16.3845 6.72936 14.7681 3.14627 14.7681 3.14627C14.7681 3.14627 14.4564 2.47663 13.9005 2.11849C13.2257 1.68455 12.2831 1.5463 12.2831 1.5463L2.28116 1.60376C2.28116 1.60376 0.779689 1.64041 0.228516 2.21261C-0.261838 2.7215 0.189554 3.77427 0.189554 3.77427C0.189554 3.77427 8.02001 19.8307 16.8863 27.9222C25.0161 35.3407 34.2482 34.8535 34.2482 34.8535Z" fill="white"/>
</svg>
