<svg width="58" height="44" viewBox="0 0 58 44" fill="none" xmlns="http://www.w3.org/2000/svg">
<path d="M56.6747 6.8695C58 11.77 58 22 58 22C58 22 58 32.23 56.6747 37.1305C55.9381 39.8393 53.7834 41.9705 51.0545 42.691C46.0984 44 29 44 29 44C29 44 11.9103 44 6.9455 42.691C4.205 41.9595 2.0532 39.831 1.3253 37.1305C8.64267e-08 32.23 0 22 0 22C0 22 8.64267e-08 11.77 1.3253 6.8695C2.0619 4.16075 4.2166 2.0295 6.9455 1.309C11.9103 -4.91738e-07 29 0 29 0C29 0 46.0984 -4.91738e-07 51.0545 1.309C53.795 2.0405 55.9468 4.169 56.6747 6.8695ZM23.2 31.625L40.6 22L23.2 12.375V31.625Z" fill="white"/>
</svg>
